<svg xmlns="http://www.w3.org/2000/svg" xmlns:xlink="http://www.w3.org/1999/xlink" width="380.653" height="605" viewBox="0 0 380.653 605">
  <defs>
    <filter id="Rectangle_4" x="19.153" y="248" width="194" height="310" filterUnits="userSpaceOnUse">
      <feOffset dx="6" dy="6" input="SourceAlpha"/>
      <feGaussianBlur stdDeviation="3" result="blur"/>
      <feFlood flood-opacity="0.161"/>
      <feComposite operator="in" in2="blur"/>
      <feComposite in="SourceGraphic"/>
    </filter>
    <filter id="Rectangle_2" x="17.653" y="250.5" width="185.53" height="300" filterUnits="userSpaceOnUse">
      <feOffset dy="3" input="SourceAlpha"/>
      <feGaussianBlur stdDeviation="4.5" result="blur-2"/>
      <feFlood flood-opacity="0.161"/>
      <feComposite operator="in" in2="blur-2"/>
      <feComposite in="SourceGraphic"/>
    </filter>
    <filter id="Rectangle_6" x="17.653" y="250.5" width="185.53" height="300" filterUnits="userSpaceOnUse">
      <feOffset dy="3" input="SourceAlpha"/>
      <feGaussianBlur stdDeviation="4.5" result="blur-3"/>
      <feFlood flood-opacity="0.161"/>
      <feComposite operator="in" in2="blur-3"/>
      <feComposite in="SourceGraphic"/>
    </filter>
  </defs>
  <g id="Group_6" data-name="Group 6" transform="translate(-89.847 -384)">
    <path id="Path_2" data-name="Path 2" d="M-.1-14.147l171.777.744L193,0V292H36.882L-2.153,279.679Z" transform="translate(122 654)" fill="rgba(47,41,47,0.27)"/>
    <text id="Thob" transform="translate(107.5 849)" fill="#fff" font-size="270" font-family="Brushter"><tspan x="0" y="0">Thob</tspan></text>
    <path id="Path_1" data-name="Path 1" d="M216.953,1.234,194.318-3.058l-24.4-3.076-21.588-1.6-19.005-.4-26.35,1.057L72.729-5.446l-29.6,2.911L20.2.448,0,4.433" transform="matrix(0.999, 0.035, -0.035, 0.999, 189.663, 857.978)" fill="none" stroke="#fff" stroke-linecap="round" stroke-width="10"/>
    <g transform="matrix(1, 0, 0, 1, 89.85, 384)" filter="url(#Rectangle_4)">
      <g id="Rectangle_4-2" data-name="Rectangle 4" transform="translate(22.15 251)" fill="#2f292f" stroke="#000" stroke-width="0.5">
        <rect width="176" height="292" stroke="none"/>
        <rect x="0.25" y="0.25" width="175.5" height="291.5" fill="none"/>
      </g>
    </g>
    <g transform="matrix(1, 0, 0, 1, 89.85, 384)" filter="url(#Rectangle_2)">
      <g id="Rectangle_2-2" data-name="Rectangle 2" transform="translate(31.15 261)" stroke="#000" stroke-width="1">
        <rect width="158.53" height="273" stroke="none"/>
        <rect x="0.5" y="0.5" width="157.53" height="272" fill="none"/>
      </g>
    </g>
    <line id="Line_1" data-name="Line 1" y1="9" x2="9" transform="translate(112.5 917.5)" fill="none" stroke="#000" stroke-width="1"/>
    <line id="Line_2" data-name="Line 2" x1="9" y1="9" transform="translate(278 917)" fill="none" stroke="#000" stroke-linecap="square" stroke-width="1"/>
    <line id="Line_3" data-name="Line 3" x2="9" y2="10" transform="translate(112.5 635.5)" fill="none" stroke="#000" stroke-width="1"/>
    <line id="Line_4" data-name="Line 4" x1="9" y2="11" transform="translate(278.5 635.5)" fill="none" stroke="#000" stroke-width="1"/>
    <path id="Intersection_1" data-name="Intersection 1" d="M-1958.271,516.3q-7.29-2.16-9.179-7.29-1.35-2.97-1.081-9.855a113.086,113.086,0,0,1,1.62-14.715q1.35-7.83,3.78-17.955t5.4-20.655q2.969-10.53,6.074-20.52t6.076-17.55q3.239-8.1,7.289-17.415t8.505-19.17q4.456-9.855,9.316-19.575t9.719-18.36a32.8,32.8,0,0,0,2.026-3.645q.674-1.485.4-1.485t-5.13,1.89q-4.86,1.89-11.88,4.59-10.8,4.05-18.495,7.02t-13.231,4.86q-5.534,1.89-9.044,2.97a35.193,35.193,0,0,1-5.671,1.35,19.926,19.926,0,0,1-8.73.173V338.41a10.362,10.362,0,0,1,1.036.5,5.664,5.664,0,0,1,2.025,1.62l.809.81,2.7-1.89q3.24-1.35,9.721-4.59l14.039-7.02q17.28-9.18,30.375-15.39A222.99,222.99,0,0,1-1897.25,303a7.289,7.289,0,0,0,3.105-1.62,19.7,19.7,0,0,0,2.026-4.05l1.079-2.97-1.079-.81a3.322,3.322,0,0,1-1.35-2.7,4.516,4.516,0,0,1,2.7-4.32,11.727,11.727,0,0,1,4.456-.4,17.2,17.2,0,0,1,5.264.945,12.286,12.286,0,0,1,4.05,2.565,8.538,8.538,0,0,1,2.431,3.375q.269,1.89.944,2.025a16.651,16.651,0,0,0,4.455-.945q10.53-2.97,21.466-5.13t19.574-3.24a34.333,34.333,0,0,1,4.725-.27h10.936a20.379,20.379,0,0,1,3.78.27,36.386,36.386,0,0,1,4.19.975V297.72q-.4,0-.815.015a88.135,88.135,0,0,0-10.936.945q-5.939.81-13.229,2.43t-15.12,3.78q-7.831,2.16-15.8,4.86t-15.255,5.4l-4.589,1.62-2.97,7.02q-1.35,2.97-2.431,5.8t-2.834,6.885q-1.756,4.05-4.455,10.125t-7.02,15.525q-5.67,12.42-11.206,25.515t-10.53,25.515q-5,12.42-9.315,23.49t-7.02,19.44q-5.67,15.66-9.179,29.16t-4.051,21.06a11.487,11.487,0,0,0-.135,2.835.625.625,0,0,0,.676.4,6.516,6.516,0,0,1,2.159.81,9.431,9.431,0,0,1,2.431,1.62q1.35,1.08.809,1.755a11.886,11.886,0,0,1-2.97,2.025,10.318,10.318,0,0,1-4.589.945q-.648.027-1.253.027A17.309,17.309,0,0,1-1958.271,516.3Zm63.72-53.73a13.309,13.309,0,0,1-1.35-.81,8.889,8.889,0,0,1-1.35-1.08l-1.619-1.35,1.349-4.86q.54-2.16,1.755-6.615t2.566-9.045q3.239-10.26,6.074-20.115t4.186-15.255q.809-2.43,2.564-8.235t3.916-11.745q8.64-25.65,13.365-41.715t5.8-23.085a12.217,12.217,0,0,1,1.081-3.78,2.428,2.428,0,0,1,2.159-.81,10.239,10.239,0,0,1,5.67,1.755,8.379,8.379,0,0,1,3.51,3.915,35.487,35.487,0,0,1,.945,5.265,25.247,25.247,0,0,1-.135,6.885,176.114,176.114,0,0,1-4.59,24.7q-3.78,15.525-9.719,33.885-1.351,4.05-2.3,7.02t-1.889,5.265q-.946,2.295-1.89,4.59t-2.025,4.995q-1.08,2.16-1.755,3.915t-.946,1.755q0,.54,2.16-1.62t5.4-5.13q18.36-18.9,27.809-23.49a14.263,14.263,0,0,1,4.726-1.35,14.377,14.377,0,0,1,4.995,1.62,32.607,32.607,0,0,1,5.13,3.24,4.519,4.519,0,0,1,1.215,1.62,9.006,9.006,0,0,1,.135,1.89,10.545,10.545,0,0,1-.271,2.295,30.985,30.985,0,0,1-1.484,4.185q-1.216,2.97-3.781,8.505t-7.155,15.255q-5.669,11.88-7.559,16.2t-1.89,5.67q0,1.08,2.16-.27a23.518,23.518,0,0,0,4.725-2.835,58.51,58.51,0,0,0,5.535-4.995q3.239-3.24,7.83-8.64t11.88-14.04q1.618-1.918,3.109-3.669v13.21q-3.49,4.386-6.349,7.875-6.75,8.235-11.205,12.825a36.794,36.794,0,0,1-7.56,6.345,15.148,15.148,0,0,1-6.075,2.025,15.463,15.463,0,0,1-9.181-2.025,15.762,15.762,0,0,1-7.02-6.885,24.246,24.246,0,0,1-1.89-4.86,25.631,25.631,0,0,1-.539-5.94,50.22,50.22,0,0,1,.674-8.505,40.794,40.794,0,0,1,2.566-8.5,2.081,2.081,0,0,0,.269-.81.781.781,0,0,1,.27-.54.781.781,0,0,1,.27-.54l-1.349,1.35q-1.351,1.35-3.24,3.375t-3.916,4.32q-2.025,2.295-3.645,4.185-4.86,6.21-10.664,13.635t-8.775,12.015q-1.89,2.7-3.24,4.32t-1.89,1.62a4.481,4.481,0,0,1-.676.54,6.535,6.535,0,0,0-.944.81,4.012,4.012,0,0,1-2.7.884A10.43,10.43,0,0,1-1894.55,462.57Z" transform="translate(2092.5 384)" fill="#fff"/>
    <g transform="matrix(1, 0, 0, 1, 89.85, 384)" filter="url(#Rectangle_6)">
      <g id="Rectangle_6-2" data-name="Rectangle 6" transform="translate(31.15 261)" stroke="#000" stroke-width="1">
        <rect width="158.53" height="273" stroke="none"/>
        <rect x="0.5" y="0.5" width="157.53" height="272" fill="none"/>
      </g>
    </g>
    <path id="Intersection_3" data-name="Intersection 3" d="M-1958.271,516.3q-7.29-2.16-9.179-7.29-1.35-2.97-1.081-9.855a113.086,113.086,0,0,1,1.62-14.715q1.35-7.83,3.78-17.955t5.4-20.655q2.969-10.53,6.074-20.52t6.076-17.55q3.239-8.1,7.289-17.415t8.505-19.17q4.456-9.855,9.316-19.575t9.719-18.36a32.8,32.8,0,0,0,2.026-3.645q.674-1.485.4-1.485t-5.13,1.89q-4.86,1.89-11.88,4.59-10.8,4.05-18.495,7.02t-13.231,4.86q-5.534,1.89-9.044,2.97a35.193,35.193,0,0,1-5.671,1.35,19.926,19.926,0,0,1-8.73.173V338.41a10.362,10.362,0,0,1,1.036.5,5.664,5.664,0,0,1,2.025,1.62l.809.81,2.7-1.89q3.24-1.35,9.721-4.59l14.039-7.02q17.28-9.18,30.375-15.39A222.99,222.99,0,0,1-1897.25,303a7.289,7.289,0,0,0,3.105-1.62,19.7,19.7,0,0,0,2.026-4.05l1.079-2.97-1.079-.81a3.322,3.322,0,0,1-1.35-2.7,4.516,4.516,0,0,1,2.7-4.32,11.727,11.727,0,0,1,4.456-.4,17.2,17.2,0,0,1,5.264.945,12.286,12.286,0,0,1,4.05,2.565,8.538,8.538,0,0,1,2.431,3.375q.269,1.89.944,2.025a16.651,16.651,0,0,0,4.455-.945q10.53-2.97,21.466-5.13t19.574-3.24a34.333,34.333,0,0,1,4.725-.27h10.936a20.379,20.379,0,0,1,3.78.27,36.386,36.386,0,0,1,4.19.975V297.72q-.4,0-.815.015a88.135,88.135,0,0,0-10.936.945q-5.939.81-13.229,2.43t-15.12,3.78q-7.831,2.16-15.8,4.86t-15.255,5.4l-4.589,1.62-2.97,7.02q-1.35,2.97-2.431,5.8t-2.834,6.885q-1.756,4.05-4.455,10.125t-7.02,15.525q-5.67,12.42-11.206,25.515t-10.53,25.515q-5,12.42-9.315,23.49t-7.02,19.44q-5.67,15.66-9.179,29.16t-4.051,21.06a11.487,11.487,0,0,0-.135,2.835.625.625,0,0,0,.676.4,6.516,6.516,0,0,1,2.159.81,9.431,9.431,0,0,1,2.431,1.62q1.35,1.08.809,1.755a11.886,11.886,0,0,1-2.97,2.025,10.318,10.318,0,0,1-4.589.945q-.648.027-1.253.027A17.309,17.309,0,0,1-1958.271,516.3Zm63.72-53.73a13.309,13.309,0,0,1-1.35-.81,8.889,8.889,0,0,1-1.35-1.08l-1.619-1.35,1.349-4.86q.54-2.16,1.755-6.615t2.566-9.045q3.239-10.26,6.074-20.115t4.186-15.255q.809-2.43,2.564-8.235t3.916-11.745q8.64-25.65,13.365-41.715t5.8-23.085a12.217,12.217,0,0,1,1.081-3.78,2.428,2.428,0,0,1,2.159-.81,10.239,10.239,0,0,1,5.67,1.755,8.379,8.379,0,0,1,3.51,3.915,35.487,35.487,0,0,1,.945,5.265,25.247,25.247,0,0,1-.135,6.885,176.114,176.114,0,0,1-4.59,24.7q-3.78,15.525-9.719,33.885-1.351,4.05-2.3,7.02t-1.889,5.265q-.946,2.295-1.89,4.59t-2.025,4.995q-1.08,2.16-1.755,3.915t-.946,1.755q0,.54,2.16-1.62t5.4-5.13q18.36-18.9,27.809-23.49a14.263,14.263,0,0,1,4.726-1.35,14.377,14.377,0,0,1,4.995,1.62,32.607,32.607,0,0,1,5.13,3.24,4.519,4.519,0,0,1,1.215,1.62,9.006,9.006,0,0,1,.135,1.89,10.545,10.545,0,0,1-.271,2.295,30.985,30.985,0,0,1-1.484,4.185q-1.216,2.97-3.781,8.505t-7.155,15.255q-5.669,11.88-7.559,16.2t-1.89,5.67q0,1.08,2.16-.27a23.518,23.518,0,0,0,4.725-2.835,58.51,58.51,0,0,0,5.535-4.995q3.239-3.24,7.83-8.64t11.88-14.04q1.618-1.918,3.109-3.669v13.21q-3.49,4.386-6.349,7.875-6.75,8.235-11.205,12.825a36.794,36.794,0,0,1-7.56,6.345,15.148,15.148,0,0,1-6.075,2.025,15.463,15.463,0,0,1-9.181-2.025,15.762,15.762,0,0,1-7.02-6.885,24.246,24.246,0,0,1-1.89-4.86,25.631,25.631,0,0,1-.539-5.94,50.22,50.22,0,0,1,.674-8.505,40.794,40.794,0,0,1,2.566-8.5,2.081,2.081,0,0,0,.269-.81.781.781,0,0,1,.27-.54.781.781,0,0,1,.27-.54l-1.349,1.35q-1.351,1.35-3.24,3.375t-3.916,4.32q-2.025,2.295-3.645,4.185-4.86,6.21-10.664,13.635t-8.775,12.015q-1.89,2.7-3.24,4.32t-1.89,1.62a4.481,4.481,0,0,1-.676.54,6.535,6.535,0,0,0-.944.81,4.012,4.012,0,0,1-2.7.884A10.43,10.43,0,0,1-1894.55,462.57Z" transform="translate(2092.5 384)" fill="#fff"/>
    <path id="Intersection_4" data-name="Intersection 4" d="M-1912.492,226.908l22.07-3.278,25-2.181,32.238-1.877,27.651-.487v9.808Z" transform="translate(2093.531 630.758)" fill="#fff"/>
  </g>
</svg>
