<svg xmlns="http://www.w3.org/2000/svg" width="353" height="479" viewBox="0 0 353 479">
  <g id="Group_2" data-name="Group 2" transform="translate(-753 -177)">
    <rect id="Rectangle_28" data-name="Rectangle 28" width="62" height="131" transform="translate(1044 177)" fill="#fedd2b"/>
    <rect id="Rectangle_27" data-name="Rectangle 27" width="62" height="131" transform="translate(753 177)" fill="#fedd2b"/>
    <rect id="Rectangle_10" data-name="Rectangle 10" width="62" height="62" transform="translate(824 321)" fill="#00b8ff"/>
    <rect id="Rectangle_26" data-name="Rectangle 26" width="62" height="131" transform="translate(898 387)" fill="#00b8ff"/>
    <rect id="Rectangle_11" data-name="Rectangle 11" width="62" height="62" transform="translate(975 321)" fill="#00b8ff"/>
    <rect id="Rectangle_17" data-name="Rectangle 17" width="62" height="62" transform="translate(898 525)" fill="#7d5dec"/>
    <rect id="Rectangle_18" data-name="Rectangle 18" width="62" height="62" transform="translate(753 315)" fill="#7d5dec"/>
    <rect id="Rectangle_19" data-name="Rectangle 19" width="62" height="198" transform="translate(753 389)" fill="#7d5dec"/>
    <rect id="Rectangle_20" data-name="Rectangle 20" width="62" height="62" transform="translate(753 594)" fill="#fedd2b"/>
    <rect id="Rectangle_21" data-name="Rectangle 21" width="62" height="62" transform="translate(1043 315)" fill="#7d5dec"/>
    <rect id="Rectangle_22" data-name="Rectangle 22" width="62" height="198" transform="translate(1043 389)" fill="#7d5dec"/>
    <rect id="Rectangle_23" data-name="Rectangle 23" width="62" height="62" transform="translate(1043 594)" fill="#fedd2b"/>
    <rect id="Rectangle_24" data-name="Rectangle 24" width="62" height="62" transform="translate(823 389)" fill="#7d5dec"/>
    <rect id="Rectangle_25" data-name="Rectangle 25" width="62" height="62" transform="translate(974 594)" fill="#fedd2b"/>
  </g>
</svg>
